<svg xmlns="http://www.w3.org/2000/svg" width="181" height="31" viewBox="0 0 181 31" fill="none">
  <path d="M90.3213 0.000732422C98.9713 0.000732422 105.781 6.76074 105.781 15.3707C105.781 23.8107 98.9913 30.6007 90.4613 30.7007C82.1513 30.8007 75.0013 23.8207 74.9213 15.5307C74.8313 7.06075 81.8213 0.0107422 90.3213 0.0107422V0.000732422Z" fill="black"/>
  <path d="M15.6413 0.000710067C24.0313 0.0807101 30.9113 7.06072 30.8613 15.4307C30.8113 23.7707 23.8113 30.6807 15.4113 30.6907C6.7713 30.7007 -0.108699 23.6807 0.00130084 14.9607C0.111301 6.61072 7.1013 -0.0792899 15.6413 0.000710067Z" fill="black"/>
  <path d="M52.8112 0.000776042C61.3912 -0.019224 68.3212 6.84079 68.3312 15.3708C68.3412 23.7408 61.4712 30.6008 52.9812 30.7008C44.6212 30.7908 37.5212 23.8608 37.4512 15.5408C37.3812 7.00078 44.2712 0.0307858 52.8112 0.0107858V0.000776042Z" fill="black"/>
  <path d="M150.031 15.1706C150.061 6.6906 156.881 -0.0294117 165.461 0.000588336C173.971 0.0305883 180.801 6.8706 180.771 15.3406C180.741 23.8406 173.931 30.6506 165.431 30.6906C156.891 30.7306 150.011 23.7906 150.031 15.1706ZM165.491 3.47059C158.801 3.40059 153.491 8.66059 153.481 15.3506C153.481 21.8606 158.751 27.1906 165.271 27.2706C171.741 27.3506 177.191 22.0606 177.321 15.5706C177.461 8.9406 172.181 3.5506 165.491 3.4806V3.47059Z" fill="black"/>
  <path d="M143.221 15.3907C143.211 23.8507 136.371 30.6707 127.871 30.7007C119.471 30.7307 112.441 23.7407 112.461 15.3807C112.481 6.78067 119.381 -0.0393367 128.011 0.000663334C136.531 0.0406633 143.231 6.83066 143.221 15.3907ZM139.751 15.3907C139.771 8.73066 134.701 3.55066 128.071 3.47066C121.371 3.40066 116.041 8.57067 115.941 15.2707C115.841 21.6807 121.201 27.1507 127.691 27.2707C134.291 27.3907 139.721 22.0307 139.741 15.3907H139.751Z" fill="black"/>
</svg>