<svg xmlns="http://www.w3.org/2000/svg" width="181" height="31" viewBox="0 0 181 31" fill="none">
    <path d="M52.72 30.7805C44.35 30.7305 37.4 23.7105 37.47 15.3605C37.54 6.96053 44.5 0.0205304 52.86 0.000530372C61.46 -0.0194696 68.47 7.09053 68.36 15.7305C68.26 24.0505 61.21 30.8205 52.72 30.7805Z" fill="black"/>
    <path d="M0.00999999 15.4606C0.00999999 6.95063 7.03 -0.0593735 15.5 0.000626463C23.88 0.0606265 30.82 7.00063 30.87 15.3806C30.92 23.7306 23.96 30.7406 15.57 30.7706C6.92 30.8106 0 24.0006 0 15.4606H0.00999999Z" fill="black"/>
    <path d="M105.82 15.4306C105.82 23.9106 99.02 30.7406 90.55 30.7806C81.99 30.8106 74.9 23.8206 74.95 15.4106C75 6.93063 82.09 -0.0593724 90.56 0.000627549C98.95 0.0606275 105.82 7.00063 105.81 15.4306H105.82Z" fill="black"/>
    <path d="M143.27 15.5005C143.27 24.0005 136.46 30.7705 127.9 30.7705C119.44 30.7705 112.47 23.8505 112.49 15.4605C112.51 7.04052 119.43 0.0705249 127.82 0.000524915C136.36 -0.0694751 143.28 6.87052 143.27 15.5005Z" fill="black"/>
    <path d="M150.08 15.4105C150.08 6.97051 156.91 0.0605107 165.32 0.000510724C173.83 -0.0494893 180.85 6.94051 180.82 15.4305C180.78 24.0605 173.95 30.8105 165.3 30.7805C156.85 30.7505 150.09 23.9205 150.09 15.4105H150.08Z" fill="black"/>
</svg>
