<svg xmlns="http://www.w3.org/2000/svg" width="181" height="31" viewBox="0 0 181 31" fill="none">
  <path d="M0 15.4301C0 6.9301 7 -0.0299034 15.5 9.66204e-05C23.93 0.0300966 30.95 7.1701 30.86 15.6301C30.77 23.9601 23.72 30.8201 15.31 30.7801C6.89 30.7401 0 23.8301 0 15.4301Z" fill="black"/>
  <path d="M105.78 15.3902C105.79 23.9202 98.8501 30.8302 90.3001 30.7902C81.9201 30.7502 74.8801 23.7202 74.9201 15.4502C74.9601 6.98019 82.0201 -0.0198099 90.4901 0.0201901C98.8801 0.0601901 105.77 6.98019 105.78 15.4002V15.3902Z" fill="black"/>
  <path d="M37.4599 15.51C37.4199 7.04002 44.4399 2.04062e-05 52.9199 0.0100204C61.2799 0.0100204 68.2599 6.95002 68.3299 15.31C68.3999 23.8 61.4399 30.77 52.8799 30.79C44.4999 30.81 37.4999 23.87 37.4599 15.52V15.51Z" fill="black"/>
  <path d="M143.23 15.64C143.18 24.06 136.29 30.83 127.8 30.79C119.41 30.75 112.41 23.75 112.45 15.45C112.49 6.96003 119.53 -0.0399682 127.99 0.0100318C136.52 0.0600318 143.29 7.00003 143.23 15.64Z" fill="black"/>
  <path d="M150.04 15.4901C150.02 6.9001 156.91 -0.029903 165.44 9.70358e-05C173.84 0.030097 180.71 6.8901 180.77 15.3301C180.84 23.8501 173.93 30.7601 165.34 30.7801C156.91 30.7901 150.06 23.9401 150.04 15.4901ZM153.49 15.4201C153.49 22.0001 158.71 27.2601 165.28 27.3101C171.94 27.3501 177.42 21.9401 177.33 15.4001C177.25 8.8001 172.02 3.5401 165.5 3.5001C158.82 3.4601 153.49 8.7501 153.48 15.4201H153.49Z" fill="black"/>
</svg>